<svg width="535" height="295" viewBox="0 0 535 295" fill="none" xmlns="http://www.w3.org/2000/svg">
<path d="M23.2 150.8C23.2 174 28.1333 194.8 38 213.2C48.1333 231.6 61.8667 246.133 79.2 256.8C96.8 267.2 116.8 272.4 139.2 272.4C161.6 272.4 181.467 267.2 198.8 256.8C216.4 246.133 230.133 231.6 240 213.2C249.867 194.8 254.8 174 254.8 150.8C254.8 127.333 249.867 106.533 240 88.4C230.133 70 216.4 55.6 198.8 45.2C181.467 34.5333 161.6 29.2 139.2 29.2C116.8 29.2 96.8 34.5333 79.2 45.2C61.8667 55.6 48.1333 70 38 88.4C28.1333 106.533 23.2 127.333 23.2 150.8ZM-4.70877e-06 150.8C-4.70877e-06 130.267 3.46666 111.333 10.4 94C17.3333 76.4 27.0667 61.2 39.6 48.4C52.1333 35.3333 66.8 25.2 83.6 18C100.667 10.8 119.2 7.2 139.2 7.2C159.2 7.2 177.6 10.8 194.4 18C211.467 25.2 226.267 35.3333 238.8 48.4C251.333 61.2 261.067 76.4 268 94C274.933 111.333 278.4 130.267 278.4 150.8C278.4 171.333 274.933 190.4 268 208C261.067 225.333 251.333 240.533 238.8 253.6C226.267 266.4 211.467 276.4 194.4 283.6C177.6 290.8 159.2 294.4 139.2 294.4C119.2 294.4 100.667 290.8 83.6 283.6C66.8 276.4 52.1333 266.4 39.6 253.6C27.0667 240.533 17.3333 225.333 10.4 208C3.46666 190.4 -4.70877e-06 171.333 -4.70877e-06 150.8ZM339.962 196.8L347.162 176H476.363L483.562 196.8H339.962ZM411.163 50.8L356.762 183.2L354.362 188L312.362 290.8H287.562L411.163 -4.76837e-06L534.763 290.8H509.962L468.363 189.6L466.363 184.4L411.163 50.8Z" fill="white"/>
</svg>
